<svg xmlns="http://www.w3.org/2000/svg" viewBox="0 0 512.001 512.001"><path d="M510.75 387.985c-2.867-11.196-10.445-20.582-20.625-25.668l-13.32-7.023 8.653-73.694h.947a8.536 8.536 0 0 0 8.533-8.533v-51.2a8.536 8.536 0 0 0-8.533-8.533h-59.733V153.6a8.536 8.536 0 0 0-8.533-8.533h-5.547l-37.12-29.696v-30.9c19.448-3.968 34.133-21.205 34.133-41.805C409.604 19.14 390.464 0 366.938 0c-21.786 0-39.603 16.478-42.155 37.581l-216.26 133.086H8.538A8.53 8.53 0 0 0 .005 179.2v51.2a8.53 8.53 0 0 0 1.434 4.736l17.058 25.6a8.545 8.545 0 0 0 7.1 3.797h42.675v32.58L43.21 363.937c-.324.879-.452 1.784-.478 2.697-.008.102-.06.196-.06.299v59.733h42.667c4.71 0 8.533 3.823 8.533 8.533s-3.823 8.533-8.533 8.533H42.671V460.8h59.733c4.71 0 8.533 3.823 8.533 8.533s-3.823 8.533-8.533 8.533H42.671v25.6a8.53 8.53 0 0 0 8.533 8.533h136.533a8.536 8.536 0 0 0 8.533-8.533V366.933c0-.102-.06-.196-.06-.299-.034-.913-.154-1.818-.486-2.697l-25.054-66.824v-62.447l187.733-140.8v21.504l-37.129 29.696h-5.538a8.53 8.53 0 0 0-8.533 8.533v59.733H247.47a8.53 8.53 0 0 0-8.533 8.533v51.2a8.53 8.53 0 0 0 8.533 8.533h9.404l8.064 74.59-11.81 6.4a39.751 39.751 0 0 0-21.606 25.694c-3.081 11.358-.998 23.415 5.478 32.759l19.251 30.754 91.264-45.201c16.307-7.364 33.519-7.339 48.708-.043l90.496 43.486 18.193-29.491a39.83 39.83 0 0 0 5.838-32.561zM30.161 247.467l-13.09-19.652v-40.081h85.333v59.733H30.161zM175.424 358.4H63.518l19.2-51.2h73.506l19.2 51.2zm-16.136-136.533h-39.817V183.97L326.575 56.516c.162.469.444.887.623 1.348.495 1.297 1.092 2.517 1.707 3.746.614 1.237 1.237 2.449 1.963 3.61.725 1.152 1.536 2.227 2.364 3.294.836 1.092 1.673 2.167 2.611 3.174.922.981 1.903 1.869 2.91 2.765 1.033.913 2.065 1.809 3.183 2.628 1.092.794 2.236 1.485 3.396 2.167.759.452 1.434 1.024 2.219 1.425L159.288 221.867zm182.05-179.2c0-14.114 11.477-25.6 25.6-25.6 14.114 0 25.6 11.486 25.6 25.6s-11.486 25.6-25.6 25.6c-14.123 0-25.6-11.486-25.6-25.6zm25.6 87.722l18.338 14.677h-36.685l18.347-14.677zm93.687 216.38l-65.784-34.645c-11.716-5.615-32.102-7.441-48.99.196l-64.7 35.063-7.108-65.783H468.27l-7.645 65.169z"/><path d="M354.814 422.025l-89.464 44.314 26.086 41.66a8.53 8.53 0 0 0 7.228 4.002h145.067a8.535 8.535 0 0 0 7.262-4.053l26.718-43.307-88.875-42.701c-10.572-5.069-22.664-5.06-34.022.085z"/><circle cx="366.935" cy="42.667" r="8.533"/></svg>