<svg xmlns="http://www.w3.org/2000/svg" viewBox="0 0 512 512"><path d="M374.63 417.097H137.37c-52.412.001-94.903 42.488-94.903 94.903h427.065v-.001c-.002-52.412-42.49-94.902-94.902-94.902z"/><circle cx="187.454" cy="158.745" r="35.589"/><path d="M355.223 158.744l8.386-8.387L221.007 7.754 204.23 24.53 179.701 0l-33.553 33.554 24.53 24.529-16.777 16.777 15.12 15.12a71.516 71.516 0 0 1 18.433-2.415c19.013 0 36.889 7.405 50.332 20.85 13.443 13.441 20.847 31.315 20.847 50.328 0 6.311-.834 12.493-2.415 18.434l40.285 40.285 8.388-8.388 24.53 24.53 50.331-50.332-24.529-24.528zm-8.39 159.379c-37.061 37.062-97.151 37.062-134.215.001-23.935-23.936-32.388-57.469-25.408-88.207-18.92-.064-36.701-7.456-50.086-20.842a71.363 71.363 0 0 1-12.659-17.128c-22.504 59.249-9.898 128.786 37.824 176.506a167.994 167.994 0 0 0 14.695 13.054l205.201.225a167.789 167.789 0 0 0 14.978-13.281l-50.33-50.328z"/></svg>