<svg xmlns="http://www.w3.org/2000/svg" width="83.4" height="83.4" viewBox="0 0 83.4 83.4"><path d="M57.301 25.6c0-.6 0-1.2-.101-1.7l-8.8 3.8h-14l-8.3-3.4c0 .4-.1.9-.1 1.3 0 8.6 7 15.6 15.6 15.6 8.701 0 15.701-7 15.701-15.6zM13.9 62.2v16.4l1.2.301c2.4.8 4.8 1.4 7.1 1.9V53.9c0-4.801 2.8-9 6.8-11-8.7 2.2-15.1 10-15.1 19.3zm22.9-19.899l-1.3 2.5c-.3.6-.4 1.1-.4 1.699v8.2c0 2.2 1.8 4 4 4h5.201c2.199 0 4-1.8 4-4v-8.2c0-.6-.101-1.199-.4-1.699l-1.301-2.5h-9.8z"/><path d="M52.5 46.7v8c0 4.5-3.699 8.2-8.199 8.2H39.1c-4.5 0-8.2-3.7-8.2-8.2v-8c-2.7 1.3-4.5 4.101-4.5 7.2v28c5.6 1.1 10.8 1.5 15.3 1.5s9.7-.5 15.3-1.5v-28c0-3.099-1.8-5.9-4.5-7.2z"/><path d="M54.4 42.9c4.1 2 6.9 6.199 6.9 11V81c2.299-.5 4.699-1.199 7.1-1.9l1.1-.399v-16.4C69.5 52.9 63.1 45.1 54.4 42.9zM41.7 12.2c2.601 0 3.899-2.3 3.899-5V0H37.8v7.1c0 2.8 1.3 5.1 3.9 5.1z"/><path d="M34.8 24.7h13.7l10.4-4.2.9-3-1-1C58.2 8.1 53.7 2.3 47.5.1v7.1c0 4-2.4 7.4-5.8 7.4s-5.8-3.3-5.8-7.4V.1c-6.2 2.2-10.7 8-11.4 16.4l-1 1 .9 3 10.4 4.2z"/></svg>