<?xml version="1.0" encoding="iso-8859-1"?>
<!-- Generator: Adobe Illustrator 19.0.0, SVG Export Plug-In . SVG Version: 6.00 Build 0)  -->
<svg version="1.1" id="Layer_1" xmlns="http://www.w3.org/2000/svg" xmlns:xlink="http://www.w3.org/1999/xlink" x="0px" y="0px"
	 viewBox="0 0 512 512" style="enable-background:new 0 0 512 512;" xml:space="preserve">
<g>
	<g>
		<path d="M374.63,417.097h-237.26C84.958,417.098,42.467,459.585,42.467,512h0.001h427.064v-0.001
			C469.53,459.587,427.042,417.097,374.63,417.097z"/>
	</g>
</g>
<g>
	<g>
		<circle cx="187.454" cy="158.745" r="35.589"/>
	</g>
</g>
<g>
	<g>
		<path d="M355.223,158.744l8.386-8.387L221.007,7.754L204.23,24.53L179.701,0l-33.553,33.554l24.53,24.529L153.901,74.86
			l15.12,15.12c5.941-1.583,12.122-2.415,18.433-2.415c19.013,0,36.889,7.405,50.332,20.85
			c13.443,13.441,20.847,31.315,20.847,50.328c0,6.311-0.834,12.493-2.415,18.434l40.285,40.285l8.388-8.388l24.53,24.53
			l50.331-50.332L355.223,158.744z"/>
	</g>
</g>
<g>
	<g>
		<path d="M346.833,318.123c-37.061,37.062-97.151,37.062-134.215,0.001c-23.935-23.936-32.388-57.469-25.408-88.207
			c-18.92-0.064-36.701-7.456-50.086-20.842c-5.125-5.125-9.366-10.897-12.659-17.128c-22.504,59.249-9.898,128.786,37.824,176.506
			c4.695,4.694,9.608,9.038,14.695,13.054l205.201,0.225c5.189-4.078,10.196-8.499,14.978-13.281L346.833,318.123z"/>
	</g>
</g>
<g>
</g>
<g>
</g>
<g>
</g>
<g>
</g>
<g>
</g>
<g>
</g>
<g>
</g>
<g>
</g>
<g>
</g>
<g>
</g>
<g>
</g>
<g>
</g>
<g>
</g>
<g>
</g>
<g>
</g>
</svg>
